PathFileType	4	(X/Y/Z)	 s05c0303.trc
DataRate	CameraRate	NumFrames	NumMarkers	Units	OrigDataRate	OrigDataStartFrame	OrigNumFrames
200	200	6	48	mm	200	251	2000
Frame#	Time	racr			lacr			c7			jug			rlel			rdr			llel			ldr			s2			lic			ric			lasi			rasi			rpsi			lpsi			rgt			lgt			rth1			rth2			rth3			rth4			rlfc			rsh1			rsh2			rsh3			rsh4			rlmal			rcal			rtoe			rmt5			rmt1			lth1			lth2			lth4			lth3			llfc			lmfc			lsh1			lsh2			lsh3			lsh4			llmal			lcal			ltoe			lmt5			SBIKE			LBIKE			RBIKE			
		X1	Y1	Z1	X2	Y2	Z2	X3	Y3	Z3	X4	Y4	Z4	X5	Y5	Z5	X6	Y6	Z6	X7	Y7	Z7	X8	Y8	Z8	X9	Y9	Z9	X10	Y10	Z10	X11	Y11	Z11	X12	Y12	Z12	X13	Y13	Z13	X14	Y14	Z14	X15	Y15	Z15	X16	Y16	Z16	X17	Y17	Z17	X18	Y18	Z18	X19	Y19	Z19	X20	Y20	Z20	X21	Y21	Z21	X22	Y22	Z22	X23	Y23	Z23	X24	Y24	Z24	X25	Y25	Z25	X26	Y26	Z26	X27	Y27	Z27	X28	Y28	Z28	X29	Y29	Z29	X30	Y30	Z30	X31	Y31	Z31	X32	Y32	Z32	X33	Y33	Z33	X34	Y34	Z34	X35	Y35	Z35	X36	Y36	Z36	X37	Y37	Z37	X38	Y38	Z38	X39	Y39	Z39	X40	Y40	Z40	X41	Y41	Z41	X42	Y42	Z42	X43	Y43	Z43	X44	Y44	Z44	X45	Y45	Z45	X46	Y46	Z46	X47	Y47	Z47	X48	Y48	Z48	
251	1.2550	429.299352	1364.689409	-130.261052	435.295825	1376.518229	-423.716190	410.137059	1450.377756	-279.712818	395.270814	1289.857781	-279.438372	516.009033	1119.425070	-31.327569	689.615863	918.580947	-74.204822	499.826677	1118.116323	-520.511348	684.332310	921.502495	-445.795009	-116.896391	1159.452496	-270.982535	35.817346	1163.886032	-410.828990	36.583049	1189.023266	-131.869873	84.673433	1112.919558	-374.994417	73.701460	1125.075432	-155.496984	-84.593521	1205.552841	-230.212916	-79.338345	1206.727606	-318.944932	-10.863637	1066.739892	-93.553218	-39.520823	1062.473423	-437.434900	89.947872	1011.382084	-75.851443	178.038852	997.908452	-66.535118	245.883289	941.457876	-66.619248	193.187971	1030.331368	-76.984484	381.438372	864.560480	-88.366371	320.565462	771.648396	-68.702019	309.669376	684.506926	-84.420491	259.992677	614.916530	-91.465385	338.378524	678.095776	-110.003853	217.239108	491.725079	-107.719744	147.631313	454.031506	-155.703907	443.071409	452.479062	-144.855389	342.574613	422.243735	-81.866055	NaN	NaN	NaN	39.661503	943.163844	-460.836876	108.237860	891.677927	-462.789190	137.866489	911.600425	-451.446587	142.003449	807.884234	-467.465078	215.533689	677.844629	-438.231761	204.046974	669.887129	-328.993472	126.744434	585.263143	-459.620740	93.603165	505.259211	-444.566679	23.035478	451.555116	-442.721003	118.562000	490.255617	-419.759601	-42.750424	350.565923	-430.054589	-116.115371	320.607821	-386.127178	166.611325	238.951806	-395.669279	55.340249	237.453713	-457.149754	-168.754923	900.945355	-268.838966	-43.282033	85.030471	-474.130177	-51.377398	80.175475	-76.553136	
252	1.2600	429.255637	1364.649150	-130.232039	435.262219	1376.495658	-423.707323	410.114920	1450.334085	-279.714720	395.222707	1289.809696	-279.464174	515.986609	1119.395788	-31.318464	689.600554	918.565698	-74.224426	499.844565	1118.115813	-520.497620	684.349558	921.507697	-445.778718	-116.931687	1159.465322	-271.035754	35.783108	1163.920178	-410.898918	36.524515	1189.031205	-131.915795	84.606507	1112.909671	-375.048320	73.638219	1125.115981	-155.513035	-84.629636	1205.562096	-230.256239	-79.354794	1206.733360	-318.979434	-10.922799	1066.805854	-93.562736	-39.557040	1062.457456	-437.455212	89.924108	1011.442498	-75.846418	178.019100	997.995388	-66.509157	245.881452	941.559943	-66.572695	193.101915	1030.478345	-76.958457	381.443694	864.726075	-88.302203	320.539817	771.840376	-68.649806	309.601692	684.715901	-84.389570	259.949736	615.096738	-91.455564	338.342050	678.325143	-110.002441	217.178486	491.946914	-107.710424	147.517718	454.285284	-155.698225	442.975090	452.620138	-144.850519	342.453023	422.421486	-81.869299	NaN	NaN	NaN	39.605757	943.124016	-460.828086	108.188533	891.616187	-462.757737	137.817407	911.526032	-451.428626	141.902487	807.805174	-467.417562	215.409841	677.764847	-438.161777	203.880883	669.793579	-328.960062	126.656752	585.135612	-459.590784	93.542698	505.101235	-444.539389	23.040627	451.346633	-442.701978	118.511921	490.119572	-419.712405	-42.692108	350.284359	-430.058623	-116.054842	320.315558	-386.131002	166.715775	238.819291	-395.676859	55.432078	237.260240	-457.166981	-168.717433	901.002607	-268.991009	-43.270197	85.048700	-474.133567	-51.374769	80.187856	-76.551546	
253	1.2650	429.218158	1364.555946	-130.218200	435.269057	1376.468254	-423.683583	410.102836	1450.271229	-279.729230	395.192756	1289.775241	-279.497066	515.989601	1119.368296	-31.328021	689.583311	918.566777	-74.225907	499.875048	1118.114758	-520.458492	684.356226	921.496940	-445.765233	-116.966415	1159.469229	-271.068949	35.752926	1163.903501	-410.915529	36.507304	1189.042285	-131.927214	84.586076	1112.889480	-375.054447	73.609069	1125.134412	-155.538152	-84.687164	1205.573217	-230.298209	-79.379144	1206.732939	-319.021564	-10.956495	1066.820697	-93.580466	-39.598728	1062.430354	-437.479665	89.886905	1011.506940	-75.819291	177.996810	998.099572	-66.517809	245.889743	941.687021	-66.529769	193.027991	1030.589174	-76.936965	381.455797	864.897789	-88.251754	320.530830	772.009502	-68.620515	309.585473	684.889359	-84.352112	259.887853	615.320042	-91.448884	338.313967	678.546406	-109.947710	217.095184	492.164049	-107.714552	147.426070	454.520801	-155.710058	442.857882	452.781919	-144.844449	342.358177	422.601225	-81.865753	NaN	NaN	NaN	39.563007	943.072987	-460.829845	108.116068	891.548596	-462.735860	137.756987	911.439280	-451.408888	141.809076	807.735017	-467.395214	215.292094	677.666993	-438.118877	203.732571	669.678492	-328.929858	126.576993	585.002266	-459.563451	93.502877	504.943982	-444.497587	23.029206	451.162440	-442.686825	118.474605	489.996286	-419.714593	-42.646913	350.007300	-430.057709	-115.985086	320.031144	-386.141324	166.829631	238.671991	-395.662231	55.533940	237.020904	-457.150460	-168.651228	900.996593	-269.045788	-43.272553	85.052598	-474.132987	-51.381534	80.194956	-76.542028	
254	1.2700	429.171393	1364.514331	-130.229899	435.245509	1376.451653	-423.666354	410.093066	1450.226220	-279.706989	395.158694	1289.721005	-279.507320	515.979817	1119.350028	-31.350704	689.578094	918.576573	-74.209290	499.912718	1118.104957	-520.434598	684.347631	921.491892	-445.758639	-117.006475	1159.465098	-271.107847	35.720879	1163.892518	-410.952014	36.474303	1189.058217	-131.955044	84.540618	1112.874728	-375.086986	73.558522	1125.147807	-155.560027	-84.723176	1205.574210	-230.334342	-79.408548	1206.718412	-319.048740	-11.014284	1066.840279	-93.582659	-39.617117	1062.400765	-437.510261	89.845250	1011.573577	-75.813154	177.958124	998.199183	-66.476575	245.875539	941.804444	-66.494843	193.000466	1030.681760	-76.912521	381.454550	865.111583	-88.261962	320.518378	772.192317	-68.588252	309.536902	685.025351	-84.314178	259.836289	615.526613	-91.432758	338.278369	678.710715	-109.966078	217.009871	492.371757	-107.707141	147.321375	454.785286	-155.722005	442.767532	452.929386	-144.832791	342.263081	422.792728	-81.849072	NaN	NaN	NaN	39.516329	943.025377	-460.831214	108.048083	891.486989	-462.716431	137.684395	911.373480	-451.389627	141.698873	807.655061	-467.364323	215.167467	677.555433	-438.084719	203.592794	669.591578	-328.903837	126.515158	584.869539	-459.552603	93.457588	504.780466	-444.465806	23.028082	450.975182	-442.682288	118.465360	489.870467	-419.681013	-42.590465	349.802736	-430.069843	-115.923152	319.738683	-386.137619	166.934781	238.568755	-395.654690	55.627607	236.864113	-457.150683	-168.728731	900.950964	-268.901569	-43.269340	85.032864	-474.138522	-51.372717	80.183419	-76.557131	
255	1.2750	429.131287	1364.472729	-130.224235	435.261178	1376.422883	-423.640839	410.084193	1450.179208	-279.704569	395.108276	1289.673397	-279.530175	515.978323	1119.334630	-31.351413	689.572507	918.579228	-74.207114	499.925659	1118.096502	-520.422191	684.369516	921.497660	-445.745120	-117.039418	1159.467848	-271.131638	35.678457	1163.880513	-410.991868	36.415380	1189.063330	-131.986714	84.495969	1112.872301	-375.121870	73.539054	1125.170985	-155.601114	-84.758009	1205.574033	-230.383999	-79.426558	1206.747737	-319.103162	-11.049046	1066.856428	-93.601364	-39.661780	1062.369326	-437.520630	89.824261	1011.612029	-75.802941	177.904122	998.350485	-66.451241	245.878499	941.958285	-66.458454	192.953536	1030.798504	-76.875988	381.508546	865.287736	-88.208882	320.515416	772.391447	-68.538345	309.520913	685.236847	-84.306783	259.777246	615.722430	-91.415344	338.286171	678.979027	-109.899324	216.939483	492.587427	-107.706326	147.237806	455.045313	-155.679172	442.652617	453.095955	-144.831974	342.167070	422.994305	-81.856784	NaN	NaN	NaN	39.451198	942.988096	-460.841952	107.982587	891.423671	-462.715248	137.635074	911.305231	-451.383829	141.586943	807.536031	-467.304305	215.039921	677.488245	-438.036813	203.454207	669.510820	-328.856519	126.445044	584.732136	-459.534488	93.419985	504.647848	-444.461249	23.035838	450.777947	-442.662409	118.429871	489.751922	-419.664780	-42.541849	349.585508	-430.073830	-115.881590	319.497196	-386.146282	167.029877	238.435503	-395.643988	55.723520	236.716726	-457.127548	-168.649080	900.985865	-268.908669	-43.256633	85.036934	-474.130959	-51.377980	80.189997	-76.531596	
256	1.2800	429.083206	1364.423552	-130.235123	435.248270	1376.414638	-423.613370	410.064318	1450.123532	-279.697136	395.070179	1289.625495	-279.519828	515.953335	1119.318450	-31.360290	689.547520	918.587081	-74.189685	499.928074	1118.100976	-520.428565	684.362509	921.499639	-445.733709	-117.074272	1159.455654	-271.161189	35.621957	1163.903846	-411.043353	36.365933	1189.083098	-132.004909	84.463920	1112.864453	-375.144654	73.484942	1125.173927	-155.614175	-84.815886	1205.573227	-230.402501	-79.455794	1206.736827	-319.131441	-11.067273	1066.877021	-93.628716	-39.695051	1062.342197	-437.541945	89.793582	1011.674707	-75.817071	177.881228	998.455904	-66.430056	245.893896	942.093463	-66.429507	192.913950	1030.906793	-76.861210	381.551830	865.539786	-88.209071	320.509292	772.641148	-68.507457	309.503924	685.418611	-84.280876	259.721324	615.936114	-91.389858	338.223516	679.136059	-109.891296	216.872072	492.803831	-107.681720	147.137167	455.326493	-155.654921	442.577290	453.246707	-144.833195	342.064436	423.210430	-81.847802	NaN	NaN	NaN	39.389271	942.951010	-460.845218	107.915478	891.368413	-462.710395	137.561517	911.244654	-451.380406	141.485774	807.460476	-467.274393	214.917200	677.395653	-438.000135	203.346064	669.447542	-328.831011	126.367585	584.594013	-459.514116	93.385911	504.482718	-444.442462	23.023028	450.576933	-442.647510	118.398899	489.627797	-419.646998	-42.504748	349.316562	-430.042914	-115.804587	319.245820	-386.152627	167.115615	238.328233	-395.631174	55.820165	236.545180	-457.103234	-168.694041	900.926836	-268.799298	-43.277152	85.030308	-474.136376	-51.365928	80.196363	-76.539915	
